# xmcd
#
# Track frame offsets:
#	150
#	15790
#	32020
#	47788
#	65732
#	82415
#	99394
#	117167
#	131579
#	146489
#	157846
#	175107
#
# Disc length: 2493 seconds
#
# Revision: 1
# Processed by: cddbd v1.5.2PL0 Copyright (c) Steve Scherf et al.
# Submitted via: audiograbber 1.82.01
#
DISCID=9709bb0c
DTITLE=Luiz Nunes - Coletanea
DYEAR=2010
DGENRE=Brega
TTITLE0=Apaixonado por você
TTITLE1=Sem a luz do seu olhar
TTITLE2=Vem logo me amar
TTITLE3=Ainda morro disso
TTITLE4=Lady "D"
TTITLE5=Coisinha linda
TTITLE6=Ainda não esqueci
TTITLE7=Outra vez vou tentar
TTITLE8=Não tem saida
TTITLE9=Declaração de amor
TTITLE10=Preciso ter você comigo
TTITLE11=A sua volta
EXTD=
EXTT0=
EXTT1=
EXTT2=
EXTT3=
EXTT4=
EXTT5=
EXTT6=
EXTT7=
EXTT8=
EXTT9=
EXTT10=
EXTT11=
PLAYORDER=
